<?xml version="1.0" encoding="UTF-8"?>
<svg width="20px" height="20px" viewBox="0 0 20 20" version="1.1" xmlns="http://www.w3.org/2000/svg" xmlns:xlink="http://www.w3.org/1999/xlink">
    <!-- Generator: Sketch 64 (93537) - https://sketch.com -->
    <title>ic/eye</title>
    <desc>Created with Sketch.</desc>
    <g id="ic/eye" stroke="none" stroke-width="1" fill="none" fill-rule="evenodd">
        <path d="M10,4.16666667 C5.83333333,4.16666667 2.275,6.75833333 0.833333333,10.4166667 C2.275,14.075 5.83333333,16.6666667 10,16.6666667 C14.1666667,16.6666667 17.725,14.075 19.1666667,10.4166667 C17.725,6.75833333 14.1666667,4.16666667 10,4.16666667 Z M10,14.5833333 C7.7,14.5833333 5.83333333,12.7166667 5.83333333,10.4166667 C5.83333333,8.11666667 7.7,6.25 10,6.25 C12.3,6.25 14.1666667,8.11666667 14.1666667,10.4166667 C14.1666667,12.7166667 12.3,14.5833333 10,14.5833333 Z M10,7.91666667 C8.61666667,7.91666667 7.5,9.03333333 7.5,10.4166667 C7.5,11.8 8.61666667,12.9166667 10,12.9166667 C11.3833333,12.9166667 12.5,11.8 12.5,10.4166667 C12.5,9.03333333 11.3833333,7.91666667 10,7.91666667 Z" id="Shape" fill="#A9ACBC" fill-rule="nonzero"></path>
    </g>
</svg>